<?xml version="1.0" encoding="UTF-8" standalone="no"?><!DOCTYPE svg PUBLIC "-//W3C//DTD SVG 1.1//EN" "http://www.w3.org/Graphics/SVG/1.1/DTD/svg11.dtd"><svg width="100%" height="100%" viewBox="0 0 4267 4267" version="1.1" xmlns="http://www.w3.org/2000/svg" xmlns:xlink="http://www.w3.org/1999/xlink" xml:space="preserve" xmlns:serif="http://www.serif.com/" style="fill-rule:evenodd;clip-rule:evenodd;stroke-linejoin:round;stroke-miterlimit:2;"><rect id="Fixed-SVG-Duplication" serif:id="Fixed SVG Duplication" x="0" y="0" width="4266.67" height="4266.67" style="fill:none;"/><g id="V4"><g><g><path d="M1595.7,136.209l224.801,838.967c-204.194,55.916 -386.649,165.791 -532.265,311.989l-544.464,-544.463c123.036,-201.1 304.006,-361.126 512.845,-471.488c106.985,-56.537 221.105,-101.594 339.083,-135.005Z" style="fill:#457dff;"/><path d="M743.773,742.702l544.464,544.463c-228.361,229.241 -366.059,547.867 -354.655,887.62c-389.609,-323.095 -459.693,-899.036 -239.34,-1342.54c15.242,-30.677 31.778,-60.526 49.531,-89.542Z" style="fill:#6245ff;"/><path d="M1595.7,136.209c275.214,-77.94 571.653,-92.666 848.605,-42.278c74.245,13.507 147.693,31.876 219.928,54.515l-221.201,825.534c-3.703,-0.985 -7.391,-1.947 -11.083,-2.89c-137.285,-35.061 -280.37,-45.521 -421.281,-31.298c-65.075,6.568 -128.589,18.52 -190.167,35.384l-224.801,-838.967Z" style="fill:#42dbfd;"/><path d="M2664.23,148.446c228.883,71.732 445.906,186.381 638.95,325.54c124.973,90.898 197.275,167.196 298.857,275.425l8.077,8.119c30.147,60.294 117.413,96.312 67.984,178.214c-12.269,20.328 -28.934,37.971 -46.444,54.006c-0,-0 -347.137,325.559 -466.385,434.34c-25.049,15.118 -57.481,8.767 -74.977,-14.682c-74.576,-98.132 -164.117,-184.851 -264.78,-256.019c-115.614,-81.74 -245.629,-143.024 -382.483,-179.409l221.201,-825.534Z" style="fill:#05d2cf;"/></g><circle cx="2133.33" cy="2134.02" r="659.64" style="fill:#309;"/><clipPath id="_clip1"><circle cx="2133.33" cy="2134.02" r="659.64"/></clipPath><g clip-path="url(#_clip1)"><circle cx="1981.62" cy="1966.64" r="659.64" style="fill:#50f;"/></g><g><path d="M2978.43,2980.88c228.361,-229.241 366.059,-547.866 354.655,-887.62c389.609,323.095 459.692,899.037 239.34,1342.54c-15.242,30.677 -31.778,60.526 -49.532,89.543l-544.463,-544.464Z" style="fill:#8c1aff;"/><path d="M2978.43,2980.88l544.463,544.464c-123.035,201.1 -304.005,361.125 -512.845,471.487c-106.984,56.537 -221.104,101.594 -339.083,135.005l-224.8,-838.967c204.193,-55.916 386.648,-165.791 532.265,-311.989Z" style="fill:#b3f;"/><path d="M2446.16,3292.87l224.8,838.967c-275.213,77.941 -571.652,92.666 -848.605,42.279c-74.244,-13.508 -147.692,-31.876 -219.927,-54.516l221.201,-825.534c3.703,0.986 7.39,1.947 11.083,2.89c137.285,35.061 280.37,45.522 421.281,31.299c65.075,-6.569 128.589,-18.521 190.167,-35.385Z" style="fill:#e14cff;"/><path d="M1602.43,4119.6c-228.883,-71.732 -445.907,-186.381 -638.95,-325.54c-124.973,-90.898 -197.275,-167.195 -298.857,-275.424l-8.078,-8.12c-30.146,-60.294 -117.413,-96.312 -67.983,-178.214c12.269,-20.328 28.934,-37.97 46.444,-54.006c0,0 347.136,-325.558 466.385,-434.34c25.048,-15.118 57.48,-8.767 74.977,14.682c74.576,98.133 164.117,184.851 264.779,256.02c115.615,81.739 245.63,143.023 382.484,179.408l-221.201,825.534Z" style="fill:#f6f;"/></g></g></g></svg>