<?xml version="1.0" encoding="UTF-8" standalone="no"?>
<!DOCTYPE svg PUBLIC "-//W3C//DTD SVG 1.1//EN" "http://www.w3.org/Graphics/SVG/1.1/DTD/svg11.dtd">
<svg width="100%" height="100%" viewBox="0 0 4267 4267" version="1.1" xmlns="http://www.w3.org/2000/svg" xmlns:xlink="http://www.w3.org/1999/xlink" xml:space="preserve" xmlns:serif="http://www.serif.com/" style="fill-rule:evenodd;clip-rule:evenodd;stroke-linejoin:round;stroke-miterlimit:2;">
    <rect id="Fixed-SVG-Duplication" serif:id="Fixed SVG Duplication" x="0" y="0" width="4266.67" height="4266.67" style="fill:none;"/>
    <g id="V4">
        <g>
            <g>
                <path d="M1518.64,1105.56C1434.63,1156.67 1357.29,1217.84 1288.24,1287.16C1059.88,1516.41 922.178,1835.03 933.582,2174.78C543.973,1851.69 473.889,1275.75 694.242,832.245C709.484,801.568 726.02,771.718 743.772,742.702C831.468,599.365 948.596,476.895 1084.27,378.403L1518.64,1105.56Z" style="fill:rgb(255,227,0);"/>
                <path d="M2566.77,1014.34C2526.31,998.634 2484.99,985.137 2443.03,973.98L2443.03,973.98C2439.33,972.995 2435.64,972.033 2431.95,971.09C2294.66,936.029 2151.58,925.569 2010.67,939.792C1945.59,946.36 1882.08,958.312 1820.5,975.176C1713.14,1004.58 1611.79,1048.89 1518.64,1105.56L1084.27,378.403C1138.94,338.711 1196.63,302.914 1256.62,271.214C1363.6,214.677 1477.72,169.62 1595.7,136.209C1870.91,58.269 2167.35,43.543 2444.3,93.931C2518.55,107.438 2592,125.807 2664.23,148.446L2664.23,148.446C2729.18,168.8 2793.16,192.608 2855.92,219.451L2566.77,1014.34Z" style="fill:rgb(255,110,0);"/>
                <path d="M2855.92,219.451C3014.34,287.212 3164.91,374.312 3303.18,473.986C3428.15,564.884 3500.45,641.182 3602.04,749.411L3610.11,757.53C3640.26,817.824 3727.53,853.842 3678.1,935.744C3665.83,956.072 3649.16,973.715 3631.65,989.75C3631.65,989.75 3284.52,1315.31 3165.27,1424.09C3140.22,1439.21 3107.79,1432.86 3090.29,1409.41C3015.72,1311.28 2926.18,1224.56 2825.51,1153.39C2745.35,1096.71 2658.26,1049.87 2566.77,1014.34L2855.92,219.451Z" style="fill:rgb(255,6,68);"/>
            </g>
            <circle cx="2133.33" cy="2134.02" r="659.64" style="fill:rgb(51,0,153);"/>
            <g>
                <clipPath id="_clip1">
                    <circle cx="2133.33" cy="2134.02" r="659.64"/>
                </clipPath>
                <g clip-path="url(#_clip1)">
                    <circle cx="1981.62" cy="1966.64" r="659.64" style="fill:rgb(85,0,255);"/>
                </g>
            </g>
            <g>
                <path d="M3172.08,3897.06C3120.48,3933.81 3066.27,3967.12 3010.05,3996.83C2903.06,4053.37 2788.05,4098.68 2670.07,4132.1L2670.07,4132.09C2395.11,4209.81 2099.01,4224.45 1822.36,4174.12C1748.11,4160.61 1674.66,4142.24 1602.43,4119.6L1602.43,4119.6C1547.34,4102.34 1492.94,4082.59 1439.4,4060.61L1734.01,3266.35C1763.5,3276.78 1793.4,3286.03 1823.63,3294.07L1823.63,3294.07C1827.33,3295.05 1831.02,3296.01 1834.71,3296.96C1972,3332.02 2115.08,3342.48 2255.99,3328.26C2321.07,3321.69 2384.58,3309.74 2446.16,3292.87C2550.25,3264.28 2648.92,3221.6 2739.91,3167.24L3172.08,3897.06Z" style="fill:rgb(85,126,196);"/>
                <path d="M2739.91,3167.24C2827.11,3115.14 2907.27,3052.32 2978.43,2980.88C3206.79,2751.64 3344.49,2433.01 3333.09,2093.26C3722.69,2416.36 3792.78,2992.3 3572.43,3435.8C3557.18,3466.48 3540.65,3496.33 3522.89,3525.34C3432.98,3672.3 3312.13,3797.33 3172.08,3897.06L2739.91,3167.24Z" style="fill:rgb(0,180,61);"/>
                <path d="M1439.4,4060.61C1270.47,3991.26 1110.06,3899.73 963.48,3794.06C838.507,3703.16 766.205,3626.87 664.623,3518.64L656.545,3510.52C626.399,3450.22 539.132,3414.2 588.562,3332.3C600.831,3311.97 617.496,3294.33 635.006,3278.3C635.006,3278.3 982.142,2952.74 1101.39,2843.96C1126.44,2828.84 1158.87,2835.19 1176.37,2858.64C1250.94,2956.77 1340.49,3043.49 1441.15,3114.66C1531.22,3178.34 1630.04,3229.61 1734.01,3266.35L1439.4,4060.61Z" style="fill:rgb(144,54,157);"/>
            </g>
        </g>
    </g>
</svg>
