<?xml version="1.0" encoding="UTF-8" standalone="no"?><!DOCTYPE svg PUBLIC "-//W3C//DTD SVG 1.1//EN" "http://www.w3.org/Graphics/SVG/1.1/DTD/svg11.dtd"><svg width="100%" height="100%" viewBox="0 0 9409 2667" version="1.1" xmlns="http://www.w3.org/2000/svg" xmlns:xlink="http://www.w3.org/1999/xlink" xml:space="preserve" xmlns:serif="http://www.serif.com/" style="fill-rule:evenodd;clip-rule:evenodd;stroke-linejoin:round;stroke-miterlimit:2;"><rect id="LOGO-FULL" serif:id="LOGO FULL" x="0" y="0" width="9408.33" height="2666.67" style="fill:none;"/><g><g id="V4"><g><path d="M261.738,1355.53c-212.2,-175.973 -250.371,-489.658 -130.356,-731.212c65.884,-132.606 176.155,-236.79 306.297,-305.564c194.1,-102.574 431.322,-135.773 646.872,-96.557c168.488,30.654 329.443,107.269 467.786,206.996c68.067,49.508 107.446,91.063 162.772,150.01l4.399,4.422c16.42,32.839 63.949,52.456 37.027,97.064c-6.682,11.072 -15.758,20.681 -25.295,29.414c-0,0 -160.043,150.095 -236.217,220.239c-24.388,15.624 -56.626,10.406 -74.839,-12.115c-37.15,-45.099 -80.284,-85.258 -128.008,-118.998c-64.663,-45.717 -137.598,-79.686 -214.355,-99.289c-74.772,-19.096 -152.703,-24.793 -229.45,-17.047c-337.553,34.072 -597.997,334.097 -586.633,672.637Z" style="fill:#50f;"/><clipPath id="_clip1"><path d="M261.738,1355.53c-212.2,-175.973 -250.371,-489.658 -130.356,-731.212c65.884,-132.606 176.155,-236.79 306.297,-305.564c194.1,-102.574 431.322,-135.773 646.872,-96.557c168.488,30.654 329.443,107.269 467.786,206.996c68.067,49.508 107.446,91.063 162.772,150.01l4.399,4.422c16.42,32.839 63.949,52.456 37.027,97.064c-6.682,11.072 -15.758,20.681 -25.295,29.414c-0,0 -160.043,150.095 -236.217,220.239c-24.388,15.624 -56.626,10.406 -74.839,-12.115c-37.15,-45.099 -80.284,-85.258 -128.008,-118.998c-64.663,-45.717 -137.598,-79.686 -214.355,-99.289c-74.772,-19.096 -152.703,-24.793 -229.45,-17.047c-337.553,34.072 -597.997,334.097 -586.633,672.637Z"/></clipPath><g clip-path="url(#_clip1)"><g><path d="M953.152,-25.186l-0,1394.08l-1537.2,-0l0,-1394.08l1537.2,-0Z" style="fill:#6245ff;"/><path d="M1854.33,397.394l-937.063,937.064l-1033.27,-1033.27l937.063,-937.064l1033.27,1033.27Z" style="fill:#457dff;"/><path d="M2194.27,991.469l-1280.05,342.989l-378.202,-1411.47l1280.05,-342.989l378.202,1411.47Z" style="fill:#42dbfd;"/><path d="M2155.29,1601.44l-1224.64,-328.142l361.831,-1350.37l1224.64,328.143l-361.831,1350.37Z" style="fill:#05d2cf;"/></g></g><circle cx="915.18" cy="1333.33" r="359.272" style="fill:#309;"/><clipPath id="_clip2"><circle cx="915.18" cy="1333.33" r="359.272"/></clipPath><g clip-path="url(#_clip2)"><circle cx="832.549" cy="1242.17" r="359.272" style="fill:#50f;"/></g><path d="M1568.62,1311.13c212.199,175.973 250.37,489.659 130.356,731.213c-65.885,132.605 -176.156,236.79 -306.298,305.564c-194.1,102.573 -431.322,135.773 -646.872,96.557c-168.488,-30.654 -329.443,-107.27 -467.786,-206.996c-68.066,-49.508 -107.445,-91.063 -162.772,-150.01l-4.399,-4.422c-16.419,-32.839 -63.949,-52.457 -37.027,-97.064c6.682,-11.072 15.758,-20.681 25.295,-29.415c0,0 160.043,-150.094 236.217,-220.238c24.388,-15.625 56.626,-10.407 74.839,12.114c37.15,45.1 80.284,85.258 128.008,118.999c64.663,45.717 137.598,79.685 214.355,99.288c74.772,19.096 152.703,24.794 229.45,17.047c337.553,-34.071 597.997,-334.097 586.634,-672.637Z" style="fill:#50f;"/><clipPath id="_clip3"><path d="M1568.62,1311.13c212.199,175.973 250.37,489.659 130.356,731.213c-65.885,132.605 -176.156,236.79 -306.298,305.564c-194.1,102.573 -431.322,135.773 -646.872,96.557c-168.488,-30.654 -329.443,-107.27 -467.786,-206.996c-68.066,-49.508 -107.445,-91.063 -162.772,-150.01l-4.399,-4.422c-16.419,-32.839 -63.949,-52.457 -37.027,-97.064c6.682,-11.072 15.758,-20.681 25.295,-29.415c0,0 160.043,-150.094 236.217,-220.238c24.388,-15.625 56.626,-10.407 74.839,12.114c37.15,45.1 80.284,85.258 128.008,118.999c64.663,45.717 137.598,79.685 214.355,99.288c74.772,19.096 152.703,24.794 229.45,17.047c337.553,-34.071 597.997,-334.097 586.634,-672.637Z"/></clipPath><g clip-path="url(#_clip3)"><g><path d="M877.209,2691.85l-0,-1394.08l1537.2,-0l-0,1394.08l-1537.2,-0Z" style="fill:#8c1aff;"/><path d="M-23.967,2269.27l937.064,-937.063l1033.27,1033.27l-937.064,937.063l-1033.27,-1033.27Z" style="fill:#b3f;"/><path d="M-363.91,1675.2l1280.05,-342.989l378.202,1411.47l-1280.05,342.989l-378.202,-1411.47Z" style="fill:#e14cff;"/><path d="M-324.933,1065.22l1224.64,328.143l-361.831,1350.37l-1224.64,-328.142l361.831,-1350.37Z" style="fill:#f6f;"/></g></g></g></g><g><path d="M2104.56,1787.71c-29.89,-36.788 -44.835,-69.839 -44.835,-99.154c0,-29.314 24.717,-68.113 74.15,-116.397c28.74,-27.59 59.204,-41.385 91.393,-41.385c32.189,-0 77.024,28.74 134.504,86.22c16.094,19.543 39.086,38.224 68.976,56.043c29.889,17.819 57.48,26.728 82.771,26.728c106.913,0 160.37,-43.685 160.37,-131.055c-0,-26.44 -14.658,-48.57 -43.973,-66.389c-29.314,-17.819 -65.814,-30.752 -109.499,-38.799c-43.685,-8.047 -90.819,-20.98 -141.401,-38.799c-50.583,-17.819 -97.716,-38.799 -141.401,-62.941c-43.685,-24.142 -80.185,-62.366 -109.5,-114.673c-29.315,-52.307 -43.972,-115.247 -43.972,-188.822c-0,-101.165 37.649,-189.397 112.948,-264.696c75.299,-75.299 177.901,-112.948 307.806,-112.948c68.976,-0 131.917,8.909 188.822,26.728c56.906,17.819 96.28,35.925 118.122,54.319l43.11,32.763c35.638,33.339 53.457,61.504 53.457,84.496c-0,22.992 -13.796,54.606 -41.386,94.842c-39.087,57.48 -79.323,86.22 -120.708,86.22c-24.142,0 -54.032,-11.496 -89.669,-34.488c-3.449,-2.299 -10.059,-8.047 -19.831,-17.244c-9.772,-9.197 -18.681,-16.669 -26.728,-22.417c-24.142,-14.945 -54.894,-22.417 -92.256,-22.417c-37.362,-0 -68.401,8.909 -93.118,26.728c-24.716,17.819 -37.074,42.535 -37.074,74.149c-0,31.614 14.657,57.193 43.972,76.736c29.315,19.544 65.815,32.764 109.5,39.662c43.685,6.897 91.393,17.531 143.125,31.901c51.732,14.37 99.441,31.902 143.126,52.594c43.684,20.693 80.184,56.618 109.499,107.776c29.315,51.157 43.972,114.098 43.972,188.822c0,74.724 -14.944,140.539 -44.834,197.444c-29.89,56.905 -68.976,100.878 -117.259,131.917c-93.118,60.929 -192.559,91.393 -298.322,91.393c-54.032,0 -105.189,-6.61 -153.472,-19.83c-48.283,-13.221 -87.37,-29.603 -117.26,-49.146c-60.928,-36.787 -103.464,-72.425 -127.605,-106.913l-15.52,-18.968Z" style="fill:var(--logo-text-color);fill-rule:nonzero;"/><path d="M3087.47,699.615l958.768,0c36.787,0 63.803,4.311 81.047,12.933c17.244,8.622 28.74,22.13 34.488,40.524c5.748,18.393 8.622,42.535 8.622,72.425c0,29.889 -2.874,53.743 -8.622,71.562c-5.748,17.819 -15.519,30.177 -29.315,37.075c-20.693,10.346 -50.007,15.52 -87.944,15.52l-329.361,-0l-0,867.374c-0,26.441 -0.862,45.985 -2.587,58.63c-1.724,12.646 -6.898,27.303 -15.52,43.972c-8.622,16.67 -23.854,28.453 -45.696,35.351c-21.843,6.897 -50.583,10.346 -86.22,10.346c-35.638,0 -64.091,-3.449 -85.358,-10.346c-21.268,-6.898 -36.213,-18.681 -44.835,-35.351c-8.622,-16.669 -13.795,-31.614 -15.519,-44.834c-1.725,-13.22 -2.587,-33.051 -2.587,-59.492l-0,-865.65l-331.086,-0c-36.787,-0 -63.802,-4.311 -81.046,-12.933c-17.245,-8.622 -28.741,-22.13 -34.489,-40.524c-5.748,-18.394 -8.622,-42.535 -8.622,-72.425c0,-29.89 2.874,-53.744 8.622,-71.563c5.748,-17.818 15.52,-30.177 29.315,-37.074c20.693,-10.347 50.008,-15.52 87.945,-15.52Z" style="fill:var(--logo-text-color);fill-rule:nonzero;"/><path d="M5091.23,747.898c11.496,-18.393 28.165,-31.039 50.007,-37.936c21.843,-6.898 49.146,-10.347 81.909,-10.347c32.764,0 58.918,2.874 78.461,8.622c19.543,5.748 34.488,12.646 44.834,20.693c10.347,8.047 17.819,20.118 22.418,36.212c6.897,19.544 10.346,49.433 10.346,89.669l-0,520.77c-0,151.748 -47.134,289.7 -141.401,413.857c-45.984,58.63 -105.189,106.051 -177.614,142.263c-72.425,36.213 -152.609,54.319 -240.554,54.319c-87.945,-0 -167.842,-18.394 -239.692,-55.181c-71.85,-36.787 -130.192,-85.07 -175.027,-144.85c-93.118,-121.858 -139.677,-259.81 -139.677,-413.857l0,-519.045c0,-27.59 0.863,-47.996 2.587,-61.216c1.724,-13.221 7.185,-28.453 16.382,-45.697c9.197,-17.244 24.716,-29.315 46.559,-36.212c21.842,-6.898 51.157,-10.347 87.944,-10.347c36.788,0 66.102,3.449 87.945,10.347c21.842,6.897 36.787,18.968 44.834,36.212c13.796,26.441 20.693,62.653 20.693,108.637l0,517.321c0,70.126 17.244,136.803 51.732,200.031c17.244,32.189 43.11,58.055 77.598,77.598c34.489,19.544 75.299,29.315 122.433,29.315c83.921,0 146.574,-31.039 187.96,-93.118c41.386,-62.078 62.079,-133.928 62.079,-215.55l-0,-527.667c-0,-44.835 5.748,-76.449 17.244,-94.843Z" style="fill:var(--logo-text-color);fill-rule:nonzero;"/><path d="M5670.63,699.615l319.015,1.725c166.692,-0 313.266,60.066 439.723,180.2c126.456,120.133 189.684,267.857 189.684,443.171c-0,175.315 -61.791,325.625 -185.373,450.932c-123.583,125.306 -273.318,187.96 -449.207,187.96l-315.566,-0c-70.126,-0 -113.811,-14.37 -131.055,-43.11c-13.795,-24.142 -20.693,-60.929 -20.693,-110.362l0,-958.768c0,-27.591 0.862,-47.709 2.587,-60.355c1.724,-12.645 7.185,-27.59 16.382,-44.834c16.094,-31.039 60.929,-46.559 134.503,-46.559Zm319.015,958.768c82.771,0 157.495,-30.751 224.172,-92.255c66.677,-61.504 100.016,-138.815 100.016,-231.932c-0,-93.118 -32.477,-171.004 -97.429,-233.657c-64.953,-62.653 -141.114,-93.98 -228.484,-93.98l-165.542,-0l-0,651.824l167.267,0Z" style="fill:var(--logo-text-color);fill-rule:nonzero;"/><path d="M7762.33,742.725c9.197,-16.094 25.004,-27.303 47.421,-33.626c22.418,-6.322 51.733,-9.484 87.945,-9.484c36.213,0 65.24,3.736 87.082,11.209c21.843,7.472 37.363,19.543 46.559,36.212c9.197,16.669 14.658,31.902 16.382,45.697c1.725,13.795 2.587,33.913 2.587,60.354l-0,958.768c-0,44.835 -5.461,77.886 -16.382,99.153c-10.921,21.268 -27.591,35.351 -50.008,42.248c-22.417,6.898 -50.295,10.347 -83.633,10.347c-33.339,-0 -59.78,-2.874 -79.323,-8.622c-19.543,-5.748 -34.488,-12.646 -44.834,-20.693c-10.347,-8.047 -17.819,-19.543 -22.418,-34.488c-6.897,-19.543 -10.346,-49.433 -10.346,-89.669l-0,-210.377l-467.313,-0c-80.472,-0 -128.181,-21.843 -143.126,-65.528c-5.748,-18.393 -8.622,-43.11 -8.622,-74.149c0,-31.039 1.725,-54.031 5.173,-68.976l143.126,-577.675c6.897,-26.441 12.933,-46.559 18.106,-60.354c5.173,-13.796 15.52,-27.016 31.039,-39.662c15.52,-12.645 35.351,-18.968 59.492,-18.968c24.142,-0 50.583,4.024 79.323,12.071c80.472,21.842 120.708,58.629 120.708,110.362c0,18.393 -4.024,42.535 -12.071,72.424c-1.149,2.3 -1.724,4.024 -1.724,5.174l-105.189,420.754l281.078,0l-0,-470.762c-0,-26.441 0.862,-45.984 2.587,-58.63c1.724,-12.645 7.185,-27.015 16.381,-43.11Z" style="fill:var(--logo-text-color);fill-rule:nonzero;"/><path d="M8991.83,1661.83c47.134,0 80.76,5.461 100.878,16.382c20.118,10.921 33.625,27.59 40.523,50.008c6.898,22.417 10.346,51.732 10.346,87.944c0,36.213 -3.736,65.24 -11.208,87.083c-7.473,21.842 -19.831,36.787 -37.075,44.834c-25.291,13.795 -60.929,20.693 -106.913,20.693l-674.242,-0c-41.385,-0 -77.023,-15.52 -106.913,-46.559c-29.889,-31.039 -44.834,-67.252 -44.834,-108.637c-0,-62.079 21.555,-119.272 64.665,-171.578c43.11,-52.307 95.13,-97.142 156.059,-134.504c60.929,-37.362 121.857,-74.149 182.786,-110.362c60.929,-36.212 112.949,-77.31 156.059,-123.295c43.11,-45.984 64.665,-94.842 64.665,-146.574c-0,-10.346 -4.024,-25.004 -12.071,-43.972c-8.047,-18.969 -16.956,-34.488 -26.728,-46.559c-9.772,-12.071 -25.004,-23.279 -45.697,-33.626c-20.693,-10.346 -49.433,-15.52 -86.22,-15.52c-36.787,0 -68.689,13.508 -95.704,40.524c-27.016,27.016 -42.248,53.744 -45.697,80.185l-6.898,39.661l0,10.346c0,25.292 -0.862,44.26 -2.586,56.906c-1.725,12.645 -7.185,27.015 -16.382,43.11c-17.244,27.59 -62.079,41.385 -134.504,41.385c-80.472,0 -128.18,-21.842 -143.125,-65.527c-5.748,-18.393 -8.622,-47.708 -8.622,-87.944c-0,-119.559 42.823,-226.759 128.468,-321.602c85.645,-94.842 197.732,-142.263 336.259,-142.263c138.527,0 250.9,47.996 337.121,143.988c86.22,95.992 129.33,205.491 129.33,328.499c-0,65.527 -14.37,127.605 -43.11,186.235c-28.74,58.63 -63.228,105.764 -103.465,141.401c-85.07,75.874 -160.944,127.031 -227.621,153.472l-43.11,17.244l0,8.622l315.566,0Z" style="fill:var(--logo-text-color);fill-rule:nonzero;"/></g></g></svg>