<?xml version="1.0" standalone="no"?>
<!DOCTYPE svg PUBLIC "-//W3C//DTD SVG 20010904//EN"
 "http://www.w3.org/TR/2001/REC-SVG-20010904/DTD/svg10.dtd">
<svg version="1.0" xmlns="http://www.w3.org/2000/svg"
 width="700.000000pt" height="700.000000pt" viewBox="0 0 700.000000 700.000000"
 preserveAspectRatio="xMidYMid meet">
<metadata>
Created by potrace 1.14, written by Peter Selinger 2001-2017
</metadata>
<g transform="translate(0.000000,700.000000) scale(0.100000,-0.100000)"
fill="#000000" stroke="none">
<path d="M3459 6666 c-2 -2 -72 -6 -156 -10 -84 -3 -158 -8 -165 -10 -7 -3
-36 -7 -65 -10 -167 -19 -454 -93 -642 -166 -377 -147 -679 -360 -911 -640
-194 -236 -342 -564 -386 -860 -3 -19 -8 -46 -10 -60 -3 -14 -7 -104 -9 -200
-4 -187 10 -319 54 -485 49 -187 149 -396 266 -550 36 -47 40 -52 130 -145
107 -110 105 -110 106 12 0 57 2 110 3 118 2 8 6 42 10 75 62 518 392 1027
853 1317 395 248 860 333 1333 243 234 -44 561 -196 755 -350 88 -70 244 -222
302 -297 48 -60 86 -83 124 -73 25 6 47 25 228 194 62 58 125 117 140 130 30
27 249 232 357 334 125 118 137 189 50 282 -10 11 -32 38 -48 60 -53 71 -278
295 -383 381 -147 119 -406 284 -595 379 -409 205 -826 316 -1224 324 -55 1
-103 4 -107 6 -3 3 -8 3 -10 1z"/>
<path d="M3350 4499 c-336 -53 -632 -279 -772 -587 -101 -222 -113 -518 -31
-745 55 -153 120 -255 243 -377 111 -111 183 -160 330 -223 193 -84 455 -97
665 -34 107 32 239 98 330 167 48 36 183 180 217 231 121 183 172 355 171 579
-1 206 -47 362 -158 535 -140 219 -357 373 -613 436 -97 24 -288 33 -382 18z"/>
<path d="M5329 3458 c0 -57 -2 -110 -3 -118 -2 -8 -7 -42 -11 -75 -51 -417
-279 -843 -608 -1135 -80 -71 -233 -184 -297 -219 -207 -112 -364 -170 -569
-212 -141 -29 -429 -36 -584 -15 -287 41 -536 135 -777 294 -84 56 -266 207
-305 253 -118 141 -152 175 -178 185 -55 20 -57 19 -286 -195 -62 -58 -129
-121 -150 -140 -20 -18 -94 -88 -166 -155 -71 -67 -154 -144 -183 -171 -93
-86 -117 -163 -71 -228 95 -136 307 -356 474 -493 182 -148 499 -338 750 -449
232 -103 534 -190 760 -220 28 -4 52 -9 55 -10 9 -5 257 -18 355 -19 490 -2
1001 133 1402 370 276 163 543 424 695 679 168 281 256 607 256 940 0 139 -4
183 -34 345 -52 281 -197 565 -395 774 -132 139 -129 139 -130 14z"/>
</g>
</svg>
